<mxfile host="app.diagrams.net" modified="2024-04-15T15:22:15.387Z" agent="Mozilla/5.0 (Windows NT 10.0; Win64; x64) AppleWebKit/537.36 (KHTML, like Gecko) Chrome/123.0.0.0 Safari/537.36 Edg/123.0.0.0" etag="TYRYL8kDw4qfiuTFeSZw" version="24.2.3" type="device">
  <diagram name="Pagina-1" id="w3DMCHcgenHs0GfEL7m-">
    <mxGraphModel dx="488" dy="413" grid="1" gridSize="10" guides="1" tooltips="1" connect="1" arrows="1" fold="1" page="1" pageScale="1" pageWidth="1654" pageHeight="1169" math="0" shadow="0">
      <root>
        <mxCell id="0" />
        <mxCell id="1" parent="0" />
        <mxCell id="BSwW54vIaD1mEI9cj9TZ-1" value="Ruolo" style="whiteSpace=wrap;html=1;align=center;" vertex="1" parent="1">
          <mxGeometry x="40" y="121" width="100" height="40" as="geometry" />
        </mxCell>
        <mxCell id="BSwW54vIaD1mEI9cj9TZ-2" value="ID_R" style="ellipse;whiteSpace=wrap;html=1;align=center;fontStyle=4;" vertex="1" parent="1">
          <mxGeometry x="30" y="30" width="100" height="40" as="geometry" />
        </mxCell>
        <mxCell id="BSwW54vIaD1mEI9cj9TZ-3" value="" style="endArrow=none;html=1;rounded=0;exitX=0.5;exitY=0;exitDx=0;exitDy=0;entryX=0.393;entryY=0.969;entryDx=0;entryDy=0;entryPerimeter=0;" edge="1" parent="1" source="BSwW54vIaD1mEI9cj9TZ-1" target="BSwW54vIaD1mEI9cj9TZ-2">
          <mxGeometry relative="1" as="geometry">
            <mxPoint x="280" y="350" as="sourcePoint" />
            <mxPoint x="80" y="70" as="targetPoint" />
          </mxGeometry>
        </mxCell>
        <mxCell id="BSwW54vIaD1mEI9cj9TZ-7" value="" style="endArrow=none;html=1;rounded=0;exitX=0.25;exitY=1;exitDx=0;exitDy=0;" edge="1" parent="1" source="BSwW54vIaD1mEI9cj9TZ-1" target="BSwW54vIaD1mEI9cj9TZ-8">
          <mxGeometry relative="1" as="geometry">
            <mxPoint x="280" y="330" as="sourcePoint" />
            <mxPoint x="60" y="200" as="targetPoint" />
          </mxGeometry>
        </mxCell>
        <mxCell id="BSwW54vIaD1mEI9cj9TZ-8" value="utente" style="ellipse;whiteSpace=wrap;html=1;align=center;" vertex="1" parent="1">
          <mxGeometry y="200" width="100" height="40" as="geometry" />
        </mxCell>
        <mxCell id="BSwW54vIaD1mEI9cj9TZ-9" value="" style="endArrow=none;html=1;rounded=0;exitX=0.5;exitY=1;exitDx=0;exitDy=0;" edge="1" parent="1" source="BSwW54vIaD1mEI9cj9TZ-1" target="BSwW54vIaD1mEI9cj9TZ-10">
          <mxGeometry relative="1" as="geometry">
            <mxPoint x="250" y="330" as="sourcePoint" />
            <mxPoint x="130" y="270" as="targetPoint" />
          </mxGeometry>
        </mxCell>
        <mxCell id="BSwW54vIaD1mEI9cj9TZ-10" value="docente" style="ellipse;whiteSpace=wrap;html=1;align=center;" vertex="1" parent="1">
          <mxGeometry x="80" y="250" width="100" height="40" as="geometry" />
        </mxCell>
        <mxCell id="BSwW54vIaD1mEI9cj9TZ-11" value="admir" style="ellipse;whiteSpace=wrap;html=1;align=center;" vertex="1" parent="1">
          <mxGeometry x="180" y="200" width="100" height="40" as="geometry" />
        </mxCell>
        <mxCell id="BSwW54vIaD1mEI9cj9TZ-12" value="" style="endArrow=none;html=1;rounded=0;exitX=0.93;exitY=1.007;exitDx=0;exitDy=0;exitPerimeter=0;entryX=0;entryY=0;entryDx=0;entryDy=0;" edge="1" parent="1" source="BSwW54vIaD1mEI9cj9TZ-1" target="BSwW54vIaD1mEI9cj9TZ-11">
          <mxGeometry relative="1" as="geometry">
            <mxPoint x="250" y="330" as="sourcePoint" />
            <mxPoint x="180" y="200" as="targetPoint" />
          </mxGeometry>
        </mxCell>
        <mxCell id="BSwW54vIaD1mEI9cj9TZ-13" value="" style="endArrow=none;html=1;rounded=0;exitX=1;exitY=0.5;exitDx=0;exitDy=0;" edge="1" parent="1" source="BSwW54vIaD1mEI9cj9TZ-1" target="BSwW54vIaD1mEI9cj9TZ-14">
          <mxGeometry relative="1" as="geometry">
            <mxPoint x="250" y="330" as="sourcePoint" />
            <mxPoint x="320" y="141" as="targetPoint" />
          </mxGeometry>
        </mxCell>
        <mxCell id="BSwW54vIaD1mEI9cj9TZ-14" value="utente_ruolo" style="shape=rhombus;perimeter=rhombusPerimeter;whiteSpace=wrap;html=1;align=center;" vertex="1" parent="1">
          <mxGeometry x="280" y="111" width="120" height="60" as="geometry" />
        </mxCell>
        <mxCell id="BSwW54vIaD1mEI9cj9TZ-15" value="" style="endArrow=none;html=1;rounded=0;exitX=1;exitY=0.5;exitDx=0;exitDy=0;" edge="1" parent="1" source="BSwW54vIaD1mEI9cj9TZ-14" target="BSwW54vIaD1mEI9cj9TZ-16">
          <mxGeometry relative="1" as="geometry">
            <mxPoint x="250" y="330" as="sourcePoint" />
            <mxPoint x="500" y="141" as="targetPoint" />
          </mxGeometry>
        </mxCell>
        <mxCell id="BSwW54vIaD1mEI9cj9TZ-16" value="utente" style="whiteSpace=wrap;html=1;align=center;" vertex="1" parent="1">
          <mxGeometry x="510" y="121" width="100" height="40" as="geometry" />
        </mxCell>
        <mxCell id="BSwW54vIaD1mEI9cj9TZ-17" value="(1,n)" style="text;html=1;align=center;verticalAlign=middle;resizable=0;points=[];autosize=1;strokeColor=none;fillColor=none;" vertex="1" parent="1">
          <mxGeometry x="145" y="108" width="50" height="30" as="geometry" />
        </mxCell>
        <mxCell id="BSwW54vIaD1mEI9cj9TZ-18" value="(1,n)" style="text;html=1;align=center;verticalAlign=middle;resizable=0;points=[];autosize=1;strokeColor=none;fillColor=none;" vertex="1" parent="1">
          <mxGeometry x="455" y="111" width="50" height="30" as="geometry" />
        </mxCell>
        <mxCell id="BSwW54vIaD1mEI9cj9TZ-19" value="" style="endArrow=none;html=1;rounded=0;entryX=0.143;entryY=-0.025;entryDx=0;entryDy=0;entryPerimeter=0;exitX=0.5;exitY=1;exitDx=0;exitDy=0;" edge="1" parent="1" source="BSwW54vIaD1mEI9cj9TZ-20" target="BSwW54vIaD1mEI9cj9TZ-16">
          <mxGeometry relative="1" as="geometry">
            <mxPoint x="510" y="60" as="sourcePoint" />
            <mxPoint x="540" y="120" as="targetPoint" />
          </mxGeometry>
        </mxCell>
        <mxCell id="BSwW54vIaD1mEI9cj9TZ-20" value="ID_U" style="ellipse;whiteSpace=wrap;html=1;align=center;fontStyle=4;" vertex="1" parent="1">
          <mxGeometry x="450" y="20" width="100" height="40" as="geometry" />
        </mxCell>
        <mxCell id="BSwW54vIaD1mEI9cj9TZ-21" value="" style="endArrow=none;html=1;rounded=0;entryX=0.25;entryY=1;entryDx=0;entryDy=0;exitX=0.618;exitY=-0.031;exitDx=0;exitDy=0;exitPerimeter=0;" edge="1" parent="1" source="BSwW54vIaD1mEI9cj9TZ-22" target="BSwW54vIaD1mEI9cj9TZ-16">
          <mxGeometry relative="1" as="geometry">
            <mxPoint x="500" y="210" as="sourcePoint" />
            <mxPoint x="410" y="110" as="targetPoint" />
          </mxGeometry>
        </mxCell>
        <mxCell id="BSwW54vIaD1mEI9cj9TZ-22" value="nome" style="ellipse;whiteSpace=wrap;html=1;align=center;" vertex="1" parent="1">
          <mxGeometry x="430" y="220" width="100" height="40" as="geometry" />
        </mxCell>
        <mxCell id="BSwW54vIaD1mEI9cj9TZ-23" value="" style="endArrow=none;html=1;rounded=0;entryX=0.5;entryY=1;entryDx=0;entryDy=0;exitX=0.368;exitY=0.063;exitDx=0;exitDy=0;exitPerimeter=0;" edge="1" parent="1" source="BSwW54vIaD1mEI9cj9TZ-24" target="BSwW54vIaD1mEI9cj9TZ-16">
          <mxGeometry relative="1" as="geometry">
            <mxPoint x="570" y="210" as="sourcePoint" />
            <mxPoint x="410" y="110" as="targetPoint" />
          </mxGeometry>
        </mxCell>
        <mxCell id="BSwW54vIaD1mEI9cj9TZ-24" value="cognome" style="ellipse;whiteSpace=wrap;html=1;align=center;" vertex="1" parent="1">
          <mxGeometry x="550" y="220" width="100" height="40" as="geometry" />
        </mxCell>
        <mxCell id="BSwW54vIaD1mEI9cj9TZ-25" value="" style="endArrow=none;html=1;rounded=0;entryX=1;entryY=1;entryDx=0;entryDy=0;exitX=0.243;exitY=-0.062;exitDx=0;exitDy=0;exitPerimeter=0;" edge="1" parent="1" source="BSwW54vIaD1mEI9cj9TZ-26" target="BSwW54vIaD1mEI9cj9TZ-16">
          <mxGeometry relative="1" as="geometry">
            <mxPoint x="660" y="210" as="sourcePoint" />
            <mxPoint x="410" y="110" as="targetPoint" />
          </mxGeometry>
        </mxCell>
        <mxCell id="BSwW54vIaD1mEI9cj9TZ-26" value="email" style="ellipse;whiteSpace=wrap;html=1;align=center;" vertex="1" parent="1">
          <mxGeometry x="680" y="210" width="100" height="40" as="geometry" />
        </mxCell>
        <mxCell id="BSwW54vIaD1mEI9cj9TZ-27" value="" style="endArrow=none;html=1;rounded=0;exitX=0.75;exitY=0;exitDx=0;exitDy=0;" edge="1" parent="1" source="BSwW54vIaD1mEI9cj9TZ-16" target="BSwW54vIaD1mEI9cj9TZ-28">
          <mxGeometry relative="1" as="geometry">
            <mxPoint x="670" y="110" as="sourcePoint" />
            <mxPoint x="620" y="60" as="targetPoint" />
          </mxGeometry>
        </mxCell>
        <mxCell id="BSwW54vIaD1mEI9cj9TZ-28" value="password" style="ellipse;whiteSpace=wrap;html=1;align=center;" vertex="1" parent="1">
          <mxGeometry x="570" y="40" width="100" height="40" as="geometry" />
        </mxCell>
        <mxCell id="BSwW54vIaD1mEI9cj9TZ-30" value="" style="endArrow=none;html=1;rounded=0;exitX=1;exitY=0.5;exitDx=0;exitDy=0;" edge="1" parent="1" source="BSwW54vIaD1mEI9cj9TZ-16" target="BSwW54vIaD1mEI9cj9TZ-31">
          <mxGeometry relative="1" as="geometry">
            <mxPoint x="670" y="110" as="sourcePoint" />
            <mxPoint x="830" y="141" as="targetPoint" />
          </mxGeometry>
        </mxCell>
        <mxCell id="BSwW54vIaD1mEI9cj9TZ-31" value="utente_corsi" style="shape=rhombus;perimeter=rhombusPerimeter;whiteSpace=wrap;html=1;align=center;" vertex="1" parent="1">
          <mxGeometry x="770" y="111" width="120" height="60" as="geometry" />
        </mxCell>
        <mxCell id="BSwW54vIaD1mEI9cj9TZ-32" value="" style="endArrow=none;html=1;rounded=0;entryX=1;entryY=0.5;entryDx=0;entryDy=0;exitX=0.5;exitY=0;exitDx=0;exitDy=0;" edge="1" parent="1" source="BSwW54vIaD1mEI9cj9TZ-33" target="BSwW54vIaD1mEI9cj9TZ-31">
          <mxGeometry relative="1" as="geometry">
            <mxPoint x="990" y="140" as="sourcePoint" />
            <mxPoint x="830" y="110" as="targetPoint" />
          </mxGeometry>
        </mxCell>
        <mxCell id="BSwW54vIaD1mEI9cj9TZ-33" value="corso" style="whiteSpace=wrap;html=1;align=center;" vertex="1" parent="1">
          <mxGeometry x="840" y="610" width="100" height="40" as="geometry" />
        </mxCell>
        <mxCell id="BSwW54vIaD1mEI9cj9TZ-34" value="" style="endArrow=none;html=1;rounded=0;exitX=0.25;exitY=0;exitDx=0;exitDy=0;" edge="1" parent="1" source="BSwW54vIaD1mEI9cj9TZ-33" target="BSwW54vIaD1mEI9cj9TZ-35">
          <mxGeometry relative="1" as="geometry">
            <mxPoint x="1020" y="80" as="sourcePoint" />
            <mxPoint x="1030" y="120" as="targetPoint" />
          </mxGeometry>
        </mxCell>
        <mxCell id="BSwW54vIaD1mEI9cj9TZ-35" value="ID_C" style="ellipse;whiteSpace=wrap;html=1;align=center;fontStyle=4;" vertex="1" parent="1">
          <mxGeometry x="690" y="505" width="100" height="40" as="geometry" />
        </mxCell>
        <mxCell id="BSwW54vIaD1mEI9cj9TZ-36" value="" style="endArrow=none;html=1;rounded=0;entryX=0.75;entryY=0;entryDx=0;entryDy=0;exitX=0;exitY=1;exitDx=0;exitDy=0;" edge="1" parent="1" source="BSwW54vIaD1mEI9cj9TZ-37" target="BSwW54vIaD1mEI9cj9TZ-33">
          <mxGeometry relative="1" as="geometry">
            <mxPoint x="1100" y="70" as="sourcePoint" />
            <mxPoint x="1030" y="110" as="targetPoint" />
          </mxGeometry>
        </mxCell>
        <mxCell id="BSwW54vIaD1mEI9cj9TZ-37" value="nome_corso" style="ellipse;whiteSpace=wrap;html=1;align=center;" vertex="1" parent="1">
          <mxGeometry x="1020" y="400" width="100" height="40" as="geometry" />
        </mxCell>
        <mxCell id="BSwW54vIaD1mEI9cj9TZ-38" value="" style="endArrow=none;html=1;rounded=0;entryX=0.25;entryY=1;entryDx=0;entryDy=0;exitX=0.73;exitY=0.094;exitDx=0;exitDy=0;exitPerimeter=0;" edge="1" parent="1" source="BSwW54vIaD1mEI9cj9TZ-39" target="BSwW54vIaD1mEI9cj9TZ-33">
          <mxGeometry relative="1" as="geometry">
            <mxPoint x="1000" y="200" as="sourcePoint" />
            <mxPoint x="1030" y="110" as="targetPoint" />
          </mxGeometry>
        </mxCell>
        <mxCell id="BSwW54vIaD1mEI9cj9TZ-39" value="descrizione_breve" style="ellipse;whiteSpace=wrap;html=1;align=center;" vertex="1" parent="1">
          <mxGeometry x="680" y="720" width="120" height="50" as="geometry" />
        </mxCell>
        <mxCell id="BSwW54vIaD1mEI9cj9TZ-41" value="" style="endArrow=none;html=1;rounded=0;entryX=0.643;entryY=1.007;entryDx=0;entryDy=0;entryPerimeter=0;exitX=0.355;exitY=0.094;exitDx=0;exitDy=0;exitPerimeter=0;" edge="1" parent="1" source="BSwW54vIaD1mEI9cj9TZ-42" target="BSwW54vIaD1mEI9cj9TZ-33">
          <mxGeometry relative="1" as="geometry">
            <mxPoint x="1090" y="220" as="sourcePoint" />
            <mxPoint x="1030" y="110" as="targetPoint" />
          </mxGeometry>
        </mxCell>
        <mxCell id="BSwW54vIaD1mEI9cj9TZ-42" value="descrizione_completa" style="ellipse;whiteSpace=wrap;html=1;align=center;" vertex="1" parent="1">
          <mxGeometry x="920" y="890" width="130" height="50" as="geometry" />
        </mxCell>
        <mxCell id="BSwW54vIaD1mEI9cj9TZ-43" value="" style="endArrow=none;html=1;rounded=0;entryX=1;entryY=1;entryDx=0;entryDy=0;exitX=0;exitY=0;exitDx=0;exitDy=0;" edge="1" parent="1" source="BSwW54vIaD1mEI9cj9TZ-44" target="BSwW54vIaD1mEI9cj9TZ-33">
          <mxGeometry relative="1" as="geometry">
            <mxPoint x="1220" y="190" as="sourcePoint" />
            <mxPoint x="1030" y="110" as="targetPoint" />
          </mxGeometry>
        </mxCell>
        <mxCell id="BSwW54vIaD1mEI9cj9TZ-44" value="durata" style="ellipse;whiteSpace=wrap;html=1;align=center;" vertex="1" parent="1">
          <mxGeometry x="1060" y="710" width="100" height="40" as="geometry" />
        </mxCell>
        <mxCell id="BSwW54vIaD1mEI9cj9TZ-45" value="" style="endArrow=none;html=1;rounded=0;exitX=1;exitY=0.5;exitDx=0;exitDy=0;entryX=0.5;entryY=0;entryDx=0;entryDy=0;" edge="1" parent="1" source="BSwW54vIaD1mEI9cj9TZ-33" target="BSwW54vIaD1mEI9cj9TZ-49">
          <mxGeometry relative="1" as="geometry">
            <mxPoint x="1390" y="110" as="sourcePoint" />
            <mxPoint x="1480" y="360" as="targetPoint" />
            <Array as="points" />
          </mxGeometry>
        </mxCell>
        <mxCell id="BSwW54vIaD1mEI9cj9TZ-46" value="(1,n)" style="text;html=1;align=center;verticalAlign=middle;resizable=0;points=[];autosize=1;strokeColor=none;fillColor=none;" vertex="1" parent="1">
          <mxGeometry x="655" y="108" width="50" height="30" as="geometry" />
        </mxCell>
        <mxCell id="BSwW54vIaD1mEI9cj9TZ-47" value="(1,n)" style="text;html=1;align=center;verticalAlign=middle;resizable=0;points=[];autosize=1;strokeColor=none;fillColor=none;" vertex="1" parent="1">
          <mxGeometry x="827" y="505" width="50" height="30" as="geometry" />
        </mxCell>
        <mxCell id="BSwW54vIaD1mEI9cj9TZ-49" value="possiede" style="shape=rhombus;double=1;perimeter=rhombusPerimeter;whiteSpace=wrap;html=1;align=center;" vertex="1" parent="1">
          <mxGeometry x="1420" y="630" width="120" height="60" as="geometry" />
        </mxCell>
        <mxCell id="BSwW54vIaD1mEI9cj9TZ-50" value="" style="endArrow=none;html=1;rounded=0;entryX=0.5;entryY=1;entryDx=0;entryDy=0;exitX=0.5;exitY=0;exitDx=0;exitDy=0;" edge="1" parent="1" source="BSwW54vIaD1mEI9cj9TZ-52" target="BSwW54vIaD1mEI9cj9TZ-49">
          <mxGeometry relative="1" as="geometry">
            <mxPoint x="1480" y="530" as="sourcePoint" />
            <mxPoint x="1340" y="280" as="targetPoint" />
          </mxGeometry>
        </mxCell>
        <mxCell id="BSwW54vIaD1mEI9cj9TZ-52" value="categoria" style="shape=ext;margin=3;double=1;whiteSpace=wrap;html=1;align=center;" vertex="1" parent="1">
          <mxGeometry x="1430" y="870" width="100" height="40" as="geometry" />
        </mxCell>
        <mxCell id="BSwW54vIaD1mEI9cj9TZ-53" value="(1,1)" style="text;html=1;align=center;verticalAlign=middle;resizable=0;points=[];autosize=1;strokeColor=none;fillColor=none;" vertex="1" parent="1">
          <mxGeometry x="1505" y="820" width="50" height="30" as="geometry" />
        </mxCell>
        <mxCell id="BSwW54vIaD1mEI9cj9TZ-54" value="(1,n)" style="text;html=1;align=center;verticalAlign=middle;resizable=0;points=[];autosize=1;strokeColor=none;fillColor=none;" vertex="1" parent="1">
          <mxGeometry x="990" y="600" width="50" height="30" as="geometry" />
        </mxCell>
        <mxCell id="BSwW54vIaD1mEI9cj9TZ-55" value="" style="endArrow=none;html=1;rounded=0;entryX=0.08;entryY=1;entryDx=0;entryDy=0;entryPerimeter=0;exitX=1;exitY=0;exitDx=0;exitDy=0;" edge="1" parent="1" source="BSwW54vIaD1mEI9cj9TZ-58" target="BSwW54vIaD1mEI9cj9TZ-52">
          <mxGeometry relative="1" as="geometry">
            <mxPoint x="1370" y="650" as="sourcePoint" />
            <mxPoint x="1340" y="640" as="targetPoint" />
          </mxGeometry>
        </mxCell>
        <mxCell id="BSwW54vIaD1mEI9cj9TZ-56" value="" style="endArrow=none;html=1;rounded=0;entryX=0.5;entryY=1;entryDx=0;entryDy=0;exitX=0.5;exitY=0;exitDx=0;exitDy=0;" edge="1" parent="1" source="BSwW54vIaD1mEI9cj9TZ-59" target="BSwW54vIaD1mEI9cj9TZ-52">
          <mxGeometry relative="1" as="geometry">
            <mxPoint x="1480" y="710" as="sourcePoint" />
            <mxPoint x="1340" y="640" as="targetPoint" />
          </mxGeometry>
        </mxCell>
        <mxCell id="BSwW54vIaD1mEI9cj9TZ-57" value="" style="endArrow=none;html=1;rounded=0;entryX=1;entryY=1;entryDx=0;entryDy=0;exitX=0.5;exitY=0;exitDx=0;exitDy=0;" edge="1" parent="1" source="BSwW54vIaD1mEI9cj9TZ-60" target="BSwW54vIaD1mEI9cj9TZ-52">
          <mxGeometry relative="1" as="geometry">
            <mxPoint x="1580" y="630" as="sourcePoint" />
            <mxPoint x="1340" y="640" as="targetPoint" />
          </mxGeometry>
        </mxCell>
        <mxCell id="BSwW54vIaD1mEI9cj9TZ-58" value="FrontEnd" style="ellipse;whiteSpace=wrap;html=1;align=center;" vertex="1" parent="1">
          <mxGeometry x="1200" y="1110" width="100" height="40" as="geometry" />
        </mxCell>
        <mxCell id="BSwW54vIaD1mEI9cj9TZ-59" value="BackEnd" style="ellipse;whiteSpace=wrap;html=1;align=center;" vertex="1" parent="1">
          <mxGeometry x="1455" y="1000" width="100" height="40" as="geometry" />
        </mxCell>
        <mxCell id="BSwW54vIaD1mEI9cj9TZ-60" value="FullStack" style="ellipse;whiteSpace=wrap;html=1;align=center;" vertex="1" parent="1">
          <mxGeometry x="1540" y="1050" width="100" height="40" as="geometry" />
        </mxCell>
        <mxCell id="BSwW54vIaD1mEI9cj9TZ-61" value="" style="endArrow=none;html=1;rounded=0;exitX=0;exitY=0.5;exitDx=0;exitDy=0;" edge="1" parent="1" source="BSwW54vIaD1mEI9cj9TZ-52" target="BSwW54vIaD1mEI9cj9TZ-62">
          <mxGeometry relative="1" as="geometry">
            <mxPoint x="1390" y="640" as="sourcePoint" />
            <mxPoint x="1260" y="570" as="targetPoint" />
          </mxGeometry>
        </mxCell>
        <mxCell id="BSwW54vIaD1mEI9cj9TZ-62" value="ID_CA" style="ellipse;whiteSpace=wrap;html=1;align=center;fontStyle=4;" vertex="1" parent="1">
          <mxGeometry x="1230" y="1000" width="100" height="40" as="geometry" />
        </mxCell>
        <mxCell id="BSwW54vIaD1mEI9cj9TZ-63" value="" style="endArrow=none;html=1;rounded=0;entryX=0.25;entryY=1;entryDx=0;entryDy=0;exitX=0.5;exitY=0;exitDx=0;exitDy=0;" edge="1" parent="1" source="BSwW54vIaD1mEI9cj9TZ-64" target="BSwW54vIaD1mEI9cj9TZ-52">
          <mxGeometry relative="1" as="geometry">
            <mxPoint x="1360" y="760" as="sourcePoint" />
            <mxPoint x="1610" y="580" as="targetPoint" />
          </mxGeometry>
        </mxCell>
        <mxCell id="BSwW54vIaD1mEI9cj9TZ-64" value="Cybersecurity" style="ellipse;whiteSpace=wrap;html=1;align=center;" vertex="1" parent="1">
          <mxGeometry x="1380" y="1070" width="110" height="50" as="geometry" />
        </mxCell>
        <mxCell id="BSwW54vIaD1mEI9cj9TZ-70" value="Ho interpretato le enum come attributi multipli che ho scomposto nella ristrutturazione" style="shape=note;size=20;whiteSpace=wrap;html=1;" vertex="1" parent="1">
          <mxGeometry x="30" y="310" width="110" height="130" as="geometry" />
        </mxCell>
      </root>
    </mxGraphModel>
  </diagram>
</mxfile>
